<?xml version="1.0" encoding="utf-8"?>
<!-- Generator: Adobe Illustrator 22.1.0, SVG Export Plug-In . SVG Version: 6.00 Build 0)  -->
<svg version="1.1" id="Capa_1" xmlns="http://www.w3.org/2000/svg" xmlns:xlink="http://www.w3.org/1999/xlink" x="0px" y="0px"
	 viewBox="0 0 842 358" style="enable-background:new 0 0 842 358;" xml:space="preserve">
<g>
	<path d="M177.6,201.1c0,10.1,6.2,17.4,17.1,17.4c8.5,0,12.8-2.4,17.7-7.3l11.8,11.5c-8,8-15.6,12.3-29.7,12.3
		c-18.5,0-36.2-8.4-36.2-40.1c0-25.5,13.8-39.9,34.1-39.9c21.7,0,34.1,15.9,34.1,37.4v8.7H177.6z M205.5,179.4
		c-2.1-4.7-6.5-8.1-13.1-8.1c-6.6,0-11,3.5-13.1,8.1c-1.2,2.8-1.7,4.9-1.8,8.4h29.7C207.1,184.3,206.7,182.2,205.5,179.4z"/>
	<path d="M260.6,234.1c-15.9,0-22.7-11.2-22.7-22.4v-38.7h-8.3v-14.9h8.3v-23.1h19.5v23.1h13.8v14.9h-13.8v37.5c0,4.5,2.1,7,6.8,7h7
		v16.5H260.6z"/>
	<path d="M295.6,201.1c0,10.1,6.2,17.4,17.1,17.4c8.6,0,12.8-2.4,17.7-7.3l11.8,11.5c-7.9,8-15.6,12.3-29.7,12.3
		c-18.5,0-36.2-8.4-36.2-40.1c0-25.5,13.8-39.9,34.1-39.9c21.8,0,34.1,15.9,34.1,37.4v8.7H295.6z M323.5,179.4
		c-2.1-4.7-6.4-8.1-13.1-8.1c-6.6,0-11,3.5-13.1,8.1c-1.2,2.8-1.6,4.9-1.8,8.4h29.7C325.1,184.3,324.7,182.2,323.5,179.4z"/>
	<path d="M501.9,234.1v-47.3c0-10.6-6.8-14.3-12.9-14.3c-6,0-13.1,3.6-13.1,13.8v47.7h-19.5v-47.3c0-10.6-6.8-14.3-12.9-14.3
		c-6.2,0-13.1,3.6-13.1,14.3v47.3h-19.5V156H430v7.2c5.1-5.3,12.3-8.1,19.5-8.1c8.7,0,15.8,3.1,20.7,9.9c6.6-6.9,13.7-9.9,23.4-9.9
		c7.8,0,14.8,2.5,19.2,6.9c6.3,6.3,8.5,13.7,8.5,22.2v50H501.9z"/>
	<path d="M573.3,234.1v-6.8c-5.2,5.3-10.2,7.5-19.2,7.5c-8.9,0-15.3-2.2-20-6.9c-4.2-4.3-6.4-10.6-6.4-17.6
		c0-12.5,8.5-22.7,26.7-22.7h18.5v-3.9c0-8.6-4.2-12.3-14.6-12.3c-7.5,0-10.9,1.8-15,6.4l-12.5-12.2c7.7-8.4,15.2-10.8,28.2-10.8
		c21.9,0,33.3,9.3,33.3,27.6v51.5H573.3z M572.8,201.1h-15.5c-7,0-11,3.3-11,8.9c0,5.4,3.6,9,11.3,9c5.4,0,8.9-0.5,12.3-3.8
		c2.1-1.9,2.8-5.1,2.8-9.9V201.1z"/>
	<g>
		<path d="M391,155.1c-8.4,0-15.9,3.9-19.6,8.4V156h-19v78.1h19.5V187c0-9.9,6.6-14.4,12.6-14.4c3.9,0,6.3,1.1,8.6,3.1
			c0,0,1-1.2,13-16.2c-0.6-0.4-1.2-0.8-1.8-1.2C400.4,156,396.3,155.1,391,155.1z"/>
	</g>
	<g>
		<polygon points="595.3,234 618.8,234 630.6,215.9 618.9,198 		"/>
		<polygon points="683.4,135.1 660,135.1 633.1,176.2 619.8,155.8 596.4,155.8 633.1,212.1 		"/>
		<polygon points="635.6,215.9 647.4,234 670.9,234 647.3,198 		"/>
	</g>
</g>
</svg>
